{"title":"Jab Tak Hai Jaan 2012 DVDRip x264 AAC - ViZNU [P2PDL]","uid":7988752,"size":741945984,"categoryP":"video","categoryS":"movies","magnet":"?xt=urn:btih:61bd8a16d697ae062bc8801b5c01582eb58055ed&amp;dn=Jab+Tak+Hai+Jaan+2012+DVDRip+x264+AAC+-+ViZNU+%5BP2PDL%5D&amp;tr=udp%3A%2F%2Ftracker.openbittorrent.com%3A80&amp;tr=udp%3A%2F%2Fopen.demonii.com%3A1337&amp;tr=udp%3A%2F%2Ftracker.coppersurfer.tk%3A6969&amp;tr=udp%3A%2F%2Fexodus.desync.com%3A6969","seeders":1,"leechers":0,"uploader":"ValidusVyto","files":-1,"time":1357353059,"description":"_________________________  Visit us at _________________________\n  &lt;a href=&quot;\nhttp://p2pdl.com&quot; rel=&quot;nofollow&quot; target=&quot;_NEW&quot;&gt;\nhttp://p2pdl.com&lt;/a&gt;  ____________________________ &lt;a href=&quot; http://p2pdl.com&quot; rel=&quot;nofollow&quot; target=&quot;_NEW&quot;&gt; http://p2pdl.com&lt;/a&gt;\n\n &lt;a href=&quot;\nhttp://www.shotpix.com/images/29949421398483958601.jpg&quot; rel=&quot;nofollow&quot; target=&quot;_NEW&quot;&gt;\nhttp://www.shotpix.com/images/29949421398483958601.jpg&lt;/a&gt;\n\n\nJab Tak Hai Jaan 2012 DVDRip x264 AAC - ViZNU\n\n\t\t\t\t\nGenre: Drama | Romance\nPlot: After finding and losing his true love in London, Samar Anand defies death by becoming a bomb\ndisposal expert for the Indian Army. Returning to London after 10 years, he suffers amnesia after an\naccident. Will he be reunited with his love?   \nDirector: Yash Chopra\nStars: Shah Rukh Khan, Katrina Kaif and Anushka Sharma.\nRated: N/a &lt;a href=&quot;\nhttp://www.imdb.com/title/tt2176013/&quot; rel=&quot;nofollow&quot; target=&quot;_NEW&quot;&gt;\nhttp://www.imdb.com/title/tt2176013/&lt;/a&gt; &lt;a href=&quot;\nhttp://cinemahouse.in/movie/220/Jab+Tak+Hai+Jaan&quot; rel=&quot;nofollow&quot; target=&quot;_NEW&quot;&gt;\nhttp://cinemahouse.in/movie/220/Jab+Tak+Hai+Jaan&lt;/a&gt;\n\nGeneral\nFormat                         : MPEG-4\nFormat profile                 : Base Media\nCodec ID                       : isom\nFile size                      : 699 MiB\nDuration                       : 2h 56mn\nOverall bit rate mode          : Variable\nOverall bit rate               : 554 Kbps\nSource                         : NTSC DVD9\n\nVideo\nID                             : 1\nFormat                         : AVC\nFormat/Info                    : Advanced Video Codec\nDuration                       : 2h 56mn\nBit rate                       : 518 Kbps\nMaximum bit rate               : 3 072 Kbps\nWidth                          : 608 pixels\nHeight                         : 256 pixels\nDisplay aspect ratio           : 2.40:1\nFrame rate mode                : Constant\nFrame rate                     : 29.970 fps\nStream size                    : 653 MiB (93%)\nWriting library                : x264 core 129 r2230\n\nAudio\nID                             : 2\nFormat                         : AAC\nFormat/Info                    : Advanced Audio Codec\nCodec ID                       : 40\nDuration                       : 2h 56mn\nBit rate mode                  : Variable\nBit rate                       : 32.0 Kbps\nMaximum bit rate               : 41.0 Kbps\nChannel(s)                     : 2 channels\nChannel positions              : Front: L R\nSampling rate                  : 44.1 KHz\nStream size                    : 40.3 MiB (6%)\nLanguage                       : Hindi\n\nSubtitle                       : Na\n\nScreens:\n &lt;a href=&quot;\nhttp://www.shotpix.com/images/21094821453872814967.png&quot; rel=&quot;nofollow&quot; target=&quot;_NEW&quot;&gt;\nhttp://www.shotpix.com/images/21094821453872814967.png&lt;/a&gt; &lt;a href=&quot;\nhttp://www.shotpix.com/images/64184041644449441186.png&quot; rel=&quot;nofollow&quot; target=&quot;_NEW&quot;&gt;\nhttp://www.shotpix.com/images/64184041644449441186.png&lt;/a&gt; &lt;a href=&quot;\nhttp://www.shotpix.com/images/84992381980346027428.png&quot; rel=&quot;nofollow&quot; target=&quot;_NEW&quot;&gt;\nhttp://www.shotpix.com/images/84992381980346027428.png&lt;/a&gt; &lt;a href=&quot;\nhttp://www.shotpix.com/images/28321123557332365286.png&quot; rel=&quot;nofollow&quot; target=&quot;_NEW&quot;&gt;\nhttp://www.shotpix.com/images/28321123557332365286.png&lt;/a&gt; &lt;a href=&quot;\nhttp://www.shotpix.com/images/18650920685130908944.png&quot; rel=&quot;nofollow&quot; target=&quot;_NEW&quot;&gt;\nhttp://www.shotpix.com/images/18650920685130908944.png&lt;/a&gt; &lt;a href=&quot;\nhttp://www.shotpix.com/images/43846627318264007021.png&quot; rel=&quot;nofollow&quot; target=&quot;_NEW&quot;&gt;\nhttp://www.shotpix.com/images/43846627318264007021.png&lt;/a&gt;\n\nSample:\n\n\n\n----------------------------------------------------------------------------------------------------\n\n\nRecommend to you to use latest version of VLC player. Install K-Lite Codec Pack or shark007 codecs\nin case of any kind of problem in playback (For non-VLC Media Player users). Alternatively, install\nCore AVC codecs, the fastest decoder that there is coupled with Community Center Codec Pack and play\non Windows Media Player Classic. Check sample to be sure.\nEnjoy!\n\nGreets to: Vitamin_X, a2zRG, srkfan, MgB, Stumpie1971, Sheychi, StyLishSaLH and, Masta staff members at\nExtraTorrent, TPB,KAT, 1337x, PublicHD, Ahashare, BTScene, SilverTorrent, LimeTorrents, TorrentMafia,\nP2PDL, and all others.\n\nEncoder Notes: Looking For Early Access To Anything You Can Provide DVDScr, R5, DVDR, BluRay, Direct\nAudio, Early Music Releases, Seedboxes, Dedicated Servers anything u can provide, Advance / Promo CDs/\nDVDs. If You Got anything to offer contact me at &quot;&lt;a class=&quot;__cf_email__&quot; href=&quot;/cdn-cgi/l/email-protection&quot; data-cfemail=&quot;c9b9bbae89a1bcbaa1e7aaa6a4&quot;&gt;[email&amp;#160;protected]&lt;/a&gt;&lt;script cf-hash='f9e31' type=&quot;text/javascript&quot;&gt;\n/* &lt;![CDATA[ */!function(){try{var t=&quot;currentScript&quot;in document?document.currentScript:function(){for(var t=document.getElementsByTagName(&quot;script&quot;),e=t.length;e--;)if(t[e].getAttribute(&quot;cf-hash&quot;))return t[e]}();if(t&amp;&amp;t.previousSibling){var e,r,n,i,c=t.previousSibling,a=c.getAttribute(&quot;data-cfemail&quot;);if(a){for(e=&quot;&quot;,r=parseInt(a.substr(0,2),16),n=2;a.length-n;n+=2)i=parseInt(a.substr(n,2),16)^r,e+=String.fromCharCode(i);e=document.createTextNode(e),c.parentNode.replaceChild(e,c)}}}catch(u){}}();/* ]]&gt; */&lt;/script&gt;&quot;.\n\nFacebook Fan Page: www . facebook . com / p2pdl","torrent":{"xt":"urn:btih:61bd8a16d697ae062bc8801b5c01582eb58055ed","amp;dn":"Jab+Tak+Hai+Jaan+2012+DVDRip+x264+AAC+-+ViZNU+%5BP2PDL%5D","amp;tr":["udp%3A%2F%2Ftracker.openbittorrent.com%3A80","udp%3A%2F%2Fopen.demonii.com%3A1337","udp%3A%2F%2Ftracker.coppersurfer.tk%3A6969","udp%3A%2F%2Fexodus.desync.com%3A6969"],"infoHash":"61bd8a16d697ae062bc8801b5c01582eb58055ed","infoHashBuffer":{"type":"Buffer","data":[97,189,138,22,214,151,174,6,43,200,128,27,92,1,88,46,181,128,85,237]},"announce":[],"urlList":[]}}